<?xml version="1.0" encoding="UTF-8" standalone="no"?>
<svg
   version="1.0"
   width="64"
   height="64"
   viewBox="0 0 48 48"
   preserveAspectRatio="xMidYMid"
   id="svg205"
   sodipodi:docname="network-toggled.svg"
   inkscape:version="1.2.2 (732a01da63, 2022-12-09)"
   xmlns:inkscape="http://www.inkscape.org/namespaces/inkscape"
   xmlns:sodipodi="http://sodipodi.sourceforge.net/DTD/sodipodi-0.dtd"
   xmlns="http://www.w3.org/2000/svg"
   xmlns:svg="http://www.w3.org/2000/svg">
  <defs
     id="defs209" />
  <sodipodi:namedview
     id="namedview207"
     pagecolor="#ffffff"
     bordercolor="#000000"
     borderopacity="0.25"
     inkscape:showpageshadow="2"
     inkscape:pageopacity="0.0"
     inkscape:pagecheckerboard="0"
     inkscape:deskcolor="#d1d1d1"
     inkscape:document-units="pt"
     showgrid="false"
     inkscape:zoom="12.265625"
     inkscape:cx="31.959236"
     inkscape:cy="32"
     inkscape:window-width="1920"
     inkscape:window-height="1001"
     inkscape:window-x="-9"
     inkscape:window-y="-9"
     inkscape:window-maximized="1"
     inkscape:current-layer="layer1" />
  <g
     inkscape:groupmode="layer"
     id="layer1"
     inkscape:label="Layer 1">
    <rect
       style="opacity:1;fill:#8a8a8a;fill-opacity:1;stroke-width:4.0463"
       id="rect6991"
       width="48.183441"
       height="48"
       x="-0.1630585"
       y="-0.020382952" />
    <g
       transform="matrix(0.1499363,0,0,-0.14847134,-0.02038209,47.510829)"
       fill="#000000"
       stroke="none"
       id="g203"
       style="fill:#b5b5b5;fill-opacity:1">
      <path
         d="m 100,260 c 0,-57 1,-60 25,-60 16,0 25,-6 25,-15 0,-12 -15,-15 -75,-15 -43,0 -75,-4 -75,-10 0,-5 11,-10 25,-10 16,0 25,-6 25,-15 0,-9 -9,-15 -25,-15 C 1,120 0,117 0,60 V 0 h 60 60 v 60 c 0,57 -1,60 -25,60 -16,0 -25,6 -25,15 0,12 17,15 90,15 73,0 90,-3 90,-15 0,-9 -9,-15 -25,-15 -24,0 -25,-3 -25,-60 V 0 h 60 60 v 60 c 0,57 -1,60 -25,60 -16,0 -25,6 -25,15 0,9 9,15 25,15 14,0 25,5 25,10 0,6 -32,10 -75,10 -60,0 -75,3 -75,15 0,9 9,15 25,15 24,0 25,3 25,60 v 60 h -60 -60 z m 100,0 v -40 h -40 -40 v 40 40 h 40 40 z M 100,60 V 20 H 60 20 v 40 40 h 40 40 z m 200,0 V 20 h -40 -40 v 40 40 h 40 40 z"
         id="path201"
         style="fill:#b5b5b5;fill-opacity:1" />
    </g>
  </g>
</svg>
