<?xml version="1.0" standalone="no"?>
<!DOCTYPE svg PUBLIC "-//W3C//DTD SVG 20010904//EN"
 "http://www.w3.org/TR/2001/REC-SVG-20010904/DTD/svg10.dtd">
<svg version="1.0" xmlns="http://www.w3.org/2000/svg"
 width="32.000000pt" height="32.000000pt" viewBox="0 0 32.000000 32.000000"
 preserveAspectRatio="xMidYMid meet">

<g transform="translate(0.000000,32.000000) scale(0.100000,-0.100000)"
fill="#000000" stroke="none">
<path d="M100 260 c0 -57 1 -60 25 -60 16 0 25 -6 25 -15 0 -12 -15 -15 -75
-15 -43 0 -75 -4 -75 -10 0 -5 11 -10 25 -10 16 0 25 -6 25 -15 0 -9 -9 -15
-25 -15 -24 0 -25 -3 -25 -60 l0 -60 60 0 60 0 0 60 c0 57 -1 60 -25 60 -16 0
-25 6 -25 15 0 12 17 15 90 15 73 0 90 -3 90 -15 0 -9 -9 -15 -25 -15 -24 0
-25 -3 -25 -60 l0 -60 60 0 60 0 0 60 c0 57 -1 60 -25 60 -16 0 -25 6 -25 15
0 9 9 15 25 15 14 0 25 5 25 10 0 6 -32 10 -75 10 -60 0 -75 3 -75 15 0 9 9
15 25 15 24 0 25 3 25 60 l0 60 -60 0 -60 0 0 -60z m100 0 l0 -40 -40 0 -40 0
0 40 0 40 40 0 40 0 0 -40z m-100 -200 l0 -40 -40 0 -40 0 0 40 0 40 40 0 40
0 0 -40z m200 0 l0 -40 -40 0 -40 0 0 40 0 40 40 0 40 0 0 -40z"/>
</g>
</svg>
